# xmcd CD database file
#
# Track frame offsets:
#	150
#	16476
#	56902
#	69398
#	83118
#	96252
#	110735
#	125752
#	139520
#	154784
#	164088
#	185685
#	199133
#	222322
#	235984
#	252931
#	265648
#	279396
#	292455
#	308057
#
# Disc length: 4301 seconds
#
# Revision: 0
# Processed by: cddbd v1.5.1PL0 Copyright (c) Steve Scherf et al.
# Submitted via: CDex 1.51
#
DISCID=3a10cb14
DTITLE=THE GRATEST JAZZ - THE GRATEST JAZZ (2)
DYEAR=2004
DGENRE=Jazz
TTITLE0=Air on a G string
TTITLE1=My funny Valentine
TTITLE2=Saturday night
TTITLE3=Whispering
TTITLE4=It's only a paper moon
TTITLE5=Begin the beguine
TTITLE6=She's funny that way
TTITLE7=Dream a lilttle dream of me
TTITLE8=American patrol
TTITLE9=Ain't no sunshine
TTITLE10=Black Orpheus
TTITLE11=Mixed emotions
TTITLE12=Day dreams
TTITLE13=Perker's mood
TTITLE14=Love won't let me wait
TTITLE15=Opus in pastels
TTITLE16=A ghost of a chance
TTITLE17=That old devil called love
TTITLE18=The Jones bash
TTITLE19=It might as well be spring
EXTD=YEAR: 2004
EXTT0=
EXTT1=
EXTT2=
EXTT3=
EXTT4=
EXTT5=
EXTT6=
EXTT7=
EXTT8=
EXTT9=
EXTT10=
EXTT11=
EXTT12=
EXTT13=
EXTT14=
EXTT15=
EXTT16=
EXTT17=
EXTT18=
EXTT19=
PLAYORDER=
